<svg width="371" height="368" viewBox="0 0 371 368" fill="none" xmlns="http://www.w3.org/2000/svg">
<path d="M371 184C371 285.62 287.949 368 185.5 368C83.0512 368 0 285.62 0 184C0 82.3796 83.0512 0 185.5 0C287.949 0 371 82.3796 371 184Z" fill="white"/>
<path d="M109.541 130.771C106.044 95.3952 110.034 24.6445 153.966 24.6445" stroke="#F96A00" stroke-width="5"/>
<path d="M194.275 126.215C197.621 92.3584 193.802 24.6445 151.757 24.6445" stroke="#F96A00" stroke-width="5"/>
<path d="M162.144 126.126C158.648 90.7507 162.638 20 206.569 20" stroke="#F96A00" stroke-width="5"/>
<path d="M246.879 121.571C250.225 87.7138 246.406 20 204.361 20" stroke="#F96A00" stroke-width="5"/>
<path d="M244.717 332.527L280.302 296.942H127.906V127.527H280.302V109.734H127.906L90 142.998V332.527H244.717Z" fill="#F96A00"/>
<mask id="path-7-outside-1_167_275" maskUnits="userSpaceOnUse" x="151" y="150.598" width="111" height="43" fill="black">
<rect fill="white" x="151" y="150.598" width="111" height="43"/>
<path d="M165.945 152.496V180.332C165.945 187.842 161.525 191.598 152.684 191.598V187.496C158.152 187.496 160.887 185.108 160.887 180.332V152.496H165.945ZM185.201 191.598H179.951L196.548 152.496H202.154L218.834 191.598H213.228L208.17 179.293H195.236L196.63 175.191H206.474L199.173 157.473L185.201 191.598ZM232.019 190.23V185.582C236.12 187.04 240.55 187.77 245.308 187.77C252.034 187.77 255.398 185.309 255.398 180.387C255.398 176.194 252.918 174.098 247.96 174.098H242.929C234.744 174.098 230.652 170.543 230.652 163.434C230.652 155.96 235.892 152.223 246.374 152.223C250.932 152.223 255.17 152.77 259.089 153.863V158.512C255.17 157.053 250.932 156.324 246.374 156.324C239.265 156.324 235.71 158.694 235.71 163.434C235.71 167.626 238.116 169.723 242.929 169.723H247.96C256.291 169.723 260.456 173.277 260.456 180.387C260.456 188.043 255.407 191.871 245.308 191.871C240.55 191.871 236.12 191.324 232.019 190.23Z"/>
</mask>
<path d="M165.945 152.496V180.332C165.945 187.842 161.525 191.598 152.684 191.598V187.496C158.152 187.496 160.887 185.108 160.887 180.332V152.496H165.945ZM185.201 191.598H179.951L196.548 152.496H202.154L218.834 191.598H213.228L208.17 179.293H195.236L196.63 175.191H206.474L199.173 157.473L185.201 191.598ZM232.019 190.23V185.582C236.12 187.04 240.55 187.77 245.308 187.77C252.034 187.77 255.398 185.309 255.398 180.387C255.398 176.194 252.918 174.098 247.96 174.098H242.929C234.744 174.098 230.652 170.543 230.652 163.434C230.652 155.96 235.892 152.223 246.374 152.223C250.932 152.223 255.17 152.77 259.089 153.863V158.512C255.17 157.053 250.932 156.324 246.374 156.324C239.265 156.324 235.71 158.694 235.71 163.434C235.71 167.626 238.116 169.723 242.929 169.723H247.96C256.291 169.723 260.456 173.277 260.456 180.387C260.456 188.043 255.407 191.871 245.308 191.871C240.55 191.871 236.12 191.324 232.019 190.23Z" fill="#F96A00"/>
<path d="M165.945 152.496H166.945V151.496H165.945V152.496ZM152.684 191.598H151.684V192.598H152.684V191.598ZM152.684 187.496V186.496H151.684V187.496H152.684ZM160.887 152.496V151.496H159.887V152.496H160.887ZM164.945 152.496V180.332H166.945V152.496H164.945ZM164.945 180.332C164.945 183.887 163.907 186.384 161.982 188.019C160.027 189.68 156.986 190.598 152.684 190.598V192.598C157.222 192.598 160.812 191.637 163.277 189.543C165.773 187.423 166.945 184.288 166.945 180.332H164.945ZM153.684 191.598V187.496H151.684V191.598H153.684ZM152.684 188.496C155.541 188.496 157.871 187.875 159.494 186.458C161.142 185.019 161.887 182.912 161.887 180.332H159.887C159.887 182.528 159.264 184.003 158.178 184.952C157.066 185.923 155.295 186.496 152.684 186.496V188.496ZM161.887 180.332V152.496H159.887V180.332H161.887ZM160.887 153.496H165.945V151.496H160.887V153.496ZM185.201 191.598V192.598H185.872L186.126 191.977L185.201 191.598ZM179.951 191.598L179.03 191.207L178.44 192.598H179.951V191.598ZM196.548 152.496V151.496H195.887L195.628 152.105L196.548 152.496ZM202.154 152.496L203.074 152.104L202.815 151.496H202.154V152.496ZM218.834 191.598V192.598H220.347L219.753 191.205L218.834 191.598ZM213.228 191.598L212.303 191.978L212.558 192.598H213.228V191.598ZM208.17 179.293L209.094 178.913L208.84 178.293H208.17V179.293ZM195.236 179.293L194.289 178.971L193.84 180.293H195.236V179.293ZM196.63 175.191V174.191H195.914L195.684 174.87L196.63 175.191ZM206.474 175.191V176.191H207.968L207.399 174.81L206.474 175.191ZM199.173 157.473L200.098 157.092L199.171 154.841L198.248 157.094L199.173 157.473ZM185.201 190.598H179.951V192.598H185.201V190.598ZM180.871 191.988L197.469 152.887L195.628 152.105L179.03 191.207L180.871 191.988ZM196.548 153.496H202.154V151.496H196.548V153.496ZM201.234 152.888L217.914 191.99L219.753 191.205L203.074 152.104L201.234 152.888ZM218.834 190.598H213.228V192.598H218.834V190.598ZM214.153 191.217L209.094 178.913L207.245 179.673L212.303 191.978L214.153 191.217ZM208.17 178.293H195.236V180.293H208.17V178.293ZM196.183 179.615L197.577 175.513L195.684 174.87L194.289 178.971L196.183 179.615ZM196.63 176.191H206.474V174.191H196.63V176.191ZM207.399 174.81L200.098 157.092L198.249 157.854L205.55 175.572L207.399 174.81ZM198.248 157.094L184.275 191.219L186.126 191.977L200.099 157.852L198.248 157.094ZM232.019 190.23H231.019V190.999L231.761 191.197L232.019 190.23ZM232.019 185.582L232.354 184.64L231.019 184.165V185.582H232.019ZM259.089 153.863H260.089V153.104L259.358 152.9L259.089 153.863ZM259.089 158.512L258.74 159.449L260.089 159.951V158.512H259.089ZM233.019 190.23V185.582H231.019V190.23H233.019ZM231.684 186.524C235.902 188.024 240.446 188.77 245.308 188.77V186.77C240.654 186.77 236.338 186.057 232.354 184.64L231.684 186.524ZM245.308 188.77C248.763 188.77 251.536 188.143 253.466 186.731C255.453 185.276 256.398 183.101 256.398 180.387H254.398C254.398 182.594 253.66 184.11 252.285 185.117C250.851 186.166 248.579 186.77 245.308 186.77V188.77ZM256.398 180.387C256.398 178.088 255.71 176.197 254.184 174.906C252.69 173.643 250.556 173.098 247.96 173.098V175.098C250.322 175.098 251.907 175.601 252.893 176.434C253.846 177.239 254.398 178.493 254.398 180.387H256.398ZM247.96 173.098H242.929V175.098H247.96V173.098ZM242.929 173.098C238.959 173.098 236.168 172.233 234.377 170.677C232.612 169.144 231.652 166.795 231.652 163.434H229.652C229.652 167.182 230.737 170.164 233.065 172.187C235.366 174.185 238.714 175.098 242.929 175.098V173.098ZM231.652 163.434C231.652 159.96 232.851 157.488 235.163 155.84C237.537 154.147 241.222 153.223 246.374 153.223V151.223C241.045 151.223 236.868 152.167 234.002 154.211C231.073 156.3 229.652 159.433 229.652 163.434H231.652ZM246.374 153.223C250.851 153.223 254.998 153.76 258.82 154.826L259.358 152.9C255.341 151.779 251.012 151.223 246.374 151.223V153.223ZM258.089 153.863V158.512H260.089V153.863H258.089ZM259.438 157.574C255.397 156.071 251.04 155.324 246.374 155.324V157.324C250.823 157.324 254.942 158.036 258.74 159.449L259.438 157.574ZM246.374 155.324C242.74 155.324 239.839 155.924 237.821 157.27C235.732 158.663 234.71 160.772 234.71 163.434H236.71C236.71 161.355 237.466 159.91 238.931 158.934C240.468 157.909 242.899 157.324 246.374 157.324V155.324ZM234.71 163.434C234.71 165.723 235.373 167.611 236.858 168.904C238.316 170.175 240.4 170.723 242.929 170.723V168.723C240.646 168.723 239.12 168.222 238.172 167.396C237.25 166.593 236.71 165.337 236.71 163.434H234.71ZM242.929 170.723H247.96V168.723H242.929V170.723ZM247.96 170.723C252.007 170.723 254.855 171.589 256.683 173.149C258.481 174.683 259.456 177.031 259.456 180.387H261.456C261.456 176.633 260.349 173.649 257.981 171.628C255.644 169.633 252.244 168.723 247.96 168.723V170.723ZM259.456 180.387C259.456 183.975 258.287 186.518 256.065 188.203C253.79 189.928 250.259 190.871 245.308 190.871V192.871C250.455 192.871 254.499 191.9 257.273 189.797C260.1 187.654 261.456 184.455 261.456 180.387H259.456ZM245.308 190.871C240.627 190.871 236.285 190.333 232.276 189.264L231.761 191.197C235.956 192.315 240.473 192.871 245.308 192.871V190.871Z" fill="#F96A00" mask="url(#path-7-outside-1_167_275)"/>
<mask id="path-9-outside-2_167_275" maskUnits="userSpaceOnUse" x="155" y="220" width="99" height="42" fill="black">
<rect fill="white" x="155" y="220" width="99" height="42"/>
<path d="M186.035 221.898V226H173.73V261H168.672V226H156.367V221.898H186.035ZM206.357 221.898V261H201.298V221.898H206.357ZM224.902 261V221.898H240.761C248.745 221.898 252.738 225.389 252.738 232.371C252.738 239.973 247.278 244.612 236.359 246.289L235.32 242.023C243.34 240.839 247.351 237.694 247.351 232.59C247.351 228.251 244.999 226.082 240.296 226.082H229.96V261H224.902Z"/>
</mask>
<path d="M186.035 221.898V226H173.73V261H168.672V226H156.367V221.898H186.035ZM206.357 221.898V261H201.298V221.898H206.357ZM224.902 261V221.898H240.761C248.745 221.898 252.738 225.389 252.738 232.371C252.738 239.973 247.278 244.612 236.359 246.289L235.32 242.023C243.34 240.839 247.351 237.694 247.351 232.59C247.351 228.251 244.999 226.082 240.296 226.082H229.96V261H224.902Z" fill="#F96A00"/>
<path d="M186.035 221.898H187.035V220.898H186.035V221.898ZM186.035 226V227H187.035V226H186.035ZM173.73 226V225H172.73V226H173.73ZM173.73 261V262H174.73V261H173.73ZM168.672 261H167.672V262H168.672V261ZM168.672 226H169.672V225H168.672V226ZM156.367 226H155.367V227H156.367V226ZM156.367 221.898V220.898H155.367V221.898H156.367ZM185.035 221.898V226H187.035V221.898H185.035ZM186.035 225H173.73V227H186.035V225ZM172.73 226V261H174.73V226H172.73ZM173.73 260H168.672V262H173.73V260ZM169.672 261V226H167.672V261H169.672ZM168.672 225H156.367V227H168.672V225ZM157.367 226V221.898H155.367V226H157.367ZM156.367 222.898H186.035V220.898H156.367V222.898ZM206.357 221.898H207.357V220.898H206.357V221.898ZM206.357 261V262H207.357V261H206.357ZM201.298 261H200.298V262H201.298V261ZM201.298 221.898V220.898H200.298V221.898H201.298ZM205.357 221.898V261H207.357V221.898H205.357ZM206.357 260H201.298V262H206.357V260ZM202.298 261V221.898H200.298V261H202.298ZM201.298 222.898H206.357V220.898H201.298V222.898ZM224.902 261H223.902V262H224.902V261ZM224.902 221.898V220.898H223.902V221.898H224.902ZM236.359 246.289L235.387 246.526L235.604 247.417L236.51 247.277L236.359 246.289ZM235.32 242.023L235.173 241.034L234.088 241.194L234.348 242.26L235.32 242.023ZM229.96 226.082V225.082H228.96V226.082H229.96ZM229.96 261V262H230.96V261H229.96ZM225.902 261V221.898H223.902V261H225.902ZM224.902 222.898H240.761V220.898H224.902V222.898ZM240.761 222.898C244.629 222.898 247.344 223.747 249.085 225.269C250.8 226.769 251.738 229.072 251.738 232.371H253.738C253.738 228.689 252.678 225.755 250.402 223.764C248.15 221.795 244.877 220.898 240.761 220.898V222.898ZM251.738 232.371C251.738 235.899 250.486 238.673 247.995 240.79C245.463 242.941 241.575 244.476 236.207 245.301L236.51 247.277C242.062 246.425 246.363 244.802 249.29 242.314C252.259 239.791 253.738 236.445 253.738 232.371H251.738ZM237.33 246.052L236.291 241.787L234.348 242.26L235.387 246.526L237.33 246.052ZM235.466 243.013C239.556 242.408 242.76 241.288 244.96 239.563C247.207 237.801 248.351 235.449 248.351 232.59H246.351C246.351 234.835 245.489 236.607 243.726 237.989C241.916 239.409 239.104 240.454 235.173 241.034L235.466 243.013ZM248.351 232.59C248.351 230.245 247.712 228.308 246.265 226.974C244.834 225.654 242.783 225.082 240.296 225.082V227.082C242.513 227.082 243.989 227.595 244.909 228.444C245.814 229.279 246.351 230.596 246.351 232.59H248.351ZM240.296 225.082H229.96V227.082H240.296V225.082ZM228.96 226.082V261H230.96V226.082H228.96ZM229.96 260H224.902V262H229.96V260Z" fill="#F96A00" mask="url(#path-9-outside-2_167_275)"/>
<circle cx="131" cy="331.753" r="15.7453" fill="white" stroke="#F96A00"/>
<circle cx="214.547" cy="331.753" r="15.7453" fill="white" stroke="#F96A00"/>
<path d="M225.65 331.752C225.65 337.885 220.679 342.856 214.547 342.856C208.414 342.856 203.443 337.885 203.443 331.752C203.443 325.62 208.414 320.648 214.547 320.648C220.679 320.648 225.65 325.62 225.65 331.752Z" fill="#F96A00" stroke="#F96A00"/>
<circle cx="131" cy="331.752" r="11.1038" fill="#F96A00" stroke="#F96A00"/>
</svg>
